# xmcd
#
# Track frame offsets:
#	150
#	23205
#	35387
#	49552
#	59400
#	77797
#	99742
#	114925
#	126142
#	140280
#	161722
#	179452
#	194952
#	208905
#	225550
#
# Disc length: 3174 seconds
#
# Revision: 1
# Processed by: cddbd v1.5.1PL0 Copyright (c) Steve Scherf et al.
# Submitted via: audiograbber 1.83.01
#
DISCID=d40c640f
DTITLE=Wesley and Marlene - Wesley and Marlene - 25 Anos
DYEAR=2005
DGENRE=Gospel
TTITLE0=Eu Posso Crer no Futuro
TTITLE1=Não Tenhas Sobre Ti
TTITLE2=Carvalhos de Justiça
TTITLE3=Tudo Posso
TTITLE4=Escuridão
TTITLE5=Olhos no Espelho
TTITLE6=Meu Meu Por Ti
TTITLE7=Vinde a Mim
TTITLE8=O Cego de Jericó
TTITLE9=Prá Cima, Brasil
TTITLE10=Tantos Amantes
TTITLE11=A Força da Minha Vida
TTITLE12=Pai Nosso
TTITLE13=Maranatha
TTITLE14=Maravilhoso Pai
EXTD=Produção da Rádio Transmundial
EXTT0=
EXTT1=
EXTT2=
EXTT3=
EXTT4=
EXTT5=
EXTT6=
EXTT7=
EXTT8=
EXTT9=
EXTT10=
EXTT11=
EXTT12=
EXTT13=
EXTT14=
PLAYORDER=
